<?xml version="1.0" encoding="utf-8"?>
<svg version="1.1" xmlns="http://www.w3.org/2000/svg" xmlns:xlink="http://www.w3.org/1999/xlink" x="0px" y="0px" viewBox="0 0 750 1294" style="enable-background:new 0 0 750 1294;" xml:space="preserve">
<style>
image{
  opacity:1
}
g image{
  opacity:0
}
g image:nth-child(2){
  opacity:1
}

g:last-child  image{
  opacity:0
}
g:last-child  image:nth-child(4){
  opacity:1
}
</style>
<image style="overflow:visible;" width="750" height="1294" xlink:href="1-5-4-2-1.jpg" ></image>
<g id="t1">
  <image style="overflow:visible;" width="200" height="200" xlink:href="s/1.png"  transform="matrix(0.5066 0 0 0.5066 352.6071 528.0714)"></image>
  <image style="overflow:visible;" width="200" height="200" xlink:href="s/2.png"  transform="matrix(0.5 0 0 0.5 353.9286 528.7321)"></image>
  <image style="overflow:visible;" width="200" height="200" xlink:href="s/3.png"  transform="matrix(0.5 0 0 0.5 353.2679 528.7321)"></image>
  <image style="overflow:visible;" width="200" height="200" xlink:href="s/4.png"  transform="matrix(0.5 0 0 0.5 353.9286 528.7321)"></image>
  <image style="overflow:visible;" width="200" height="200" xlink:href="s/5.png"  transform="matrix(0.5 0 0 0.5 353.2679 528.7321)"></image>
  <image style="overflow:visible;" width="200" height="200" xlink:href="s/6.png"  transform="matrix(0.5 0 0 0.5 353.9286 528.7321)"></image>
  <image style="overflow:visible;" width="200" height="200" xlink:href="s/t.png"  transform="matrix(0.5 0 0 0.5 353.2679 528.7321)"></image>
  <image style="overflow:visible;" width="200" height="200" xlink:href="s/b.png"  transform="matrix(0.5 0 0 0.5 353.2679 528.7321)"></image>
  <image style="overflow:visible;" width="200" height="200" xlink:href="s/s.png"  transform="matrix(0.5 0 0 0.5 353.2679 528.7321)"></image>
</g>
<g id="t2">
	<image style="overflow:visible;" width="200" height="200" xlink:href="s/1.png"  transform="matrix(0.5066 0 0 0.5066 453.9286 427.4107)"></image>
	<image style="overflow:visible;" width="200" height="200" xlink:href="s/2.png"  transform="matrix(0.5 0 0 0.5 455.25 428.0714)"></image>
	<image style="overflow:visible;" width="200" height="200" xlink:href="s/3.png"  transform="matrix(0.5 0 0 0.5 454.5893 428.0714)"></image>
	<image style="overflow:visible;" width="200" height="200" xlink:href="s/4.png"  transform="matrix(0.5 0 0 0.5 455.25 428.0714)"></image>
	<image style="overflow:visible;" width="200" height="200" xlink:href="s/5.png"  transform="matrix(0.5 0 0 0.5 454.5893 428.0714)"></image>
	<image style="overflow:visible;" width="200" height="200" xlink:href="s/6.png"  transform="matrix(0.5 0 0 0.5 455.25 428.0714)"></image>
	<image style="overflow:visible;" width="200" height="200" xlink:href="s/t.png"  transform="matrix(0.5 0 0 0.5 454.5893 428.0714)"></image>
  <image style="overflow:visible;" width="200" height="200" xlink:href="s/b.png"  transform="matrix(0.5 0 0 0.5 455.25 428.0714)"></image>
	<image style="overflow:visible;" width="200" height="200" xlink:href="s/s.png"  transform="matrix(0.5 0 0 0.5 454.5893 428.0714)"></image>
</g>
</svg>
